# xmcd
# 
# Track frame offsets:
#     187
#     21432
#     45847
#     69680
#     95977
#     117705
#     158442
#     180890
#     206585
# 
# Disc length: 3285
# 
# Revision: 2
# Processed by: cddbd v1.5.2PL0 Copyright (c) Steve Scherf et al.
# Submitted via: fre:ac v1.0.17
# 
DISCID=750cd309
DTITLE=Bill Evans - At Shelly's Manne-Hole
DYEAR=0
DGENRE=Jazz
TTITLE0=Isn't It Romantic?
TTITLE1=The Boy Next Door
TTITLE2=Wonder Why
TTITLE3=Swedish Pastry
TTITLE4=Our Love Is Here To Stay
TTITLE5='Round Midnight
TTITLE6=Stella By Starlight
TTITLE7=Blues In "F"
TTITLE8=All The Things You Are
EXTD=
EXTT0=
EXTT1=
EXTT2=
EXTT3=
EXTT4=
EXTT5=
EXTT6=
EXTT7=
EXTT8=
PLAYORDER=
